<svg version="1.1" xmlns="http://www.w3.org/2000/svg" viewBox="0 0 1535.98046875 2012.9439905355057" width="1535.98046875" height="2012.9439905355057">
  <!-- svg-source:excalidraw -->
  
  <defs>
    <style class="style-fonts">
      @font-face {
        font-family: "Virgil";
        src: url("https://excalidraw.com/Virgil.woff2");
      }
      @font-face {
        font-family: "Cascadia";
        src: url("https://excalidraw.com/Cascadia.woff2");
      }
    </style>
  </defs>
  <rect x="0" y="0" width="1535.98046875" height="2012.9439905355057" fill="#ffffff"></rect><g transform="translate(923.7282784913793 10) rotate(0 47 12.5)"><text x="0" y="18" font-family="Virgil, Segoe UI Emoji" font-size="20px" fill="#000000" text-anchor="start" style="white-space: pre;" direction="ltr">Todo App</text></g><g transform="translate(10 337.2096155355056) rotate(0 159 112.5)"><text x="0" y="18" font-family="Virgil, Segoe UI Emoji" font-size="20px" fill="#000000" text-anchor="start" style="white-space: pre;" direction="ltr">Stack</text><text x="0" y="43" font-family="Virgil, Segoe UI Emoji" font-size="20px" fill="#000000" text-anchor="start" style="white-space: pre;" direction="ltr">- Typescript (Frontend/Backend)</text><text x="0" y="68" font-family="Virgil, Segoe UI Emoji" font-size="20px" fill="#000000" text-anchor="start" style="white-space: pre;" direction="ltr">- React/Vite (frontend)</text><text x="0" y="93" font-family="Virgil, Segoe UI Emoji" font-size="20px" fill="#000000" text-anchor="start" style="white-space: pre;" direction="ltr">- React Query</text><text x="0" y="118" font-family="Virgil, Segoe UI Emoji" font-size="20px" fill="#000000" text-anchor="start" style="white-space: pre;" direction="ltr">- Express JS (backend)</text><text x="0" y="143" font-family="Virgil, Segoe UI Emoji" font-size="20px" fill="#000000" text-anchor="start" style="white-space: pre;" direction="ltr">- Postgres (database)</text><text x="0" y="168" font-family="Virgil, Segoe UI Emoji" font-size="20px" fill="#000000" text-anchor="start" style="white-space: pre;" direction="ltr">- Prisma (ORM)</text><text x="0" y="193" font-family="Virgil, Segoe UI Emoji" font-size="20px" fill="#000000" text-anchor="start" style="white-space: pre;" direction="ltr">- Mantine (CSS Framework)</text><text x="0" y="218" font-family="Virgil, Segoe UI Emoji" font-size="20px" fill="#000000" text-anchor="start" style="white-space: pre;" direction="ltr"></text></g><g transform="translate(567.1171875 156.7760217855056) rotate(0 46.5 25)"><text x="0" y="18" font-family="Virgil, Segoe UI Emoji" font-size="20px" fill="#000000" text-anchor="start" style="white-space: pre;" direction="ltr">Front-end</text><text x="0" y="43" font-family="Virgil, Segoe UI Emoji" font-size="20px" fill="#000000" text-anchor="start" style="white-space: pre;" direction="ltr"></text></g><g stroke-linecap="round" transform="translate(546.95703125 234.9830530355056) rotate(0 75.302734375 54.134765625)"><path d="M-1.29 -0.52 C53.05 -2.47, 102.93 -0.58, 149.63 0.32 M0.5 0.63 C56.24 -0.84, 111.33 -0.15, 150.8 0.85 M152.55 0.99 C148.05 34.25, 149.78 69.6, 148.71 109.34 M150.53 -0.93 C151.7 40.44, 150.95 80.02, 151.59 107.6 M150.72 110.11 C93.6 109.07, 35.55 111.17, -0.48 108.47 M150.51 107.83 C94.58 109.31, 40.07 109.02, 0.55 107.65 M-1.17 107.61 C-0.27 71.03, 0.89 33.92, -0.55 1.95 M0.18 108.94 C-1.58 78.62, -0.56 49.75, 0 0.14" stroke="#000000" stroke-width="1" fill="none"></path></g><g transform="translate(557.759765625 251.6178186605056) rotate(0 64.5 37.5)"><text x="64.5" y="18" font-family="Virgil, Segoe UI Emoji" font-size="20px" fill="#000000" text-anchor="middle" style="white-space: pre;" direction="ltr">SPA</text><text x="64.5" y="43" font-family="Virgil, Segoe UI Emoji" font-size="20px" fill="#000000" text-anchor="middle" style="white-space: pre;" direction="ltr">(Single Page </text><text x="64.5" y="68" font-family="Virgil, Segoe UI Emoji" font-size="20px" fill="#000000" text-anchor="middle" style="white-space: pre;" direction="ltr">Application)</text></g><g stroke-linecap="round" transform="translate(467.109375 411.5768030355056) rotate(0 173.5 137.5)"><path d="M-0.4 -0.11 C133.03 -1, 269.02 -1.53, 346.64 0.89 M0.64 0.37 C85.34 -1.68, 170.08 -1.67, 347.64 -0.6 M347.66 0.98 C347.34 110.41, 345.22 218.49, 347.71 274.13 M346.59 0.18 C347.47 90.89, 346.56 181.49, 346.55 275.07 M345.9 275.57 C245.09 273.22, 145.55 274.05, -0.65 274.1 M346.7 275.07 C262.33 276.13, 177.9 276.53, -0.51 275.6 M-0.49 274.15 C-1.81 199.62, -2.05 125.34, 0.45 1.22 M-0.18 274.7 C0.14 191.64, -0.48 109.28, 0.69 0.21" stroke="#000000" stroke-width="1" fill="none"></path></g><g transform="translate(587.609375 536.5768030355056) rotate(0 53 12.5)"><text x="53" y="18" font-family="Virgil, Segoe UI Emoji" font-size="20px" fill="#000000" text-anchor="middle" style="white-space: pre;" direction="ltr">Vite - SPA</text></g><g stroke-linecap="round" transform="translate(502.0234375 420.7486780355056) rotate(0 58 34)"><path d="M-1.12 0.6 C29.83 0.52, 59.14 -0.07, 117.97 0.44 M0.09 -0.1 C33.04 0.03, 64.33 1.11, 115.06 -0.25 M114.63 -1.13 C116.16 20.81, 115.33 40.25, 115.29 68.68 M116.91 -0.29 C117.03 18.78, 116.33 35.62, 115.36 67.37 M117.57 68.01 C90.46 68.5, 64.42 67.56, 0.41 66.23 M116.27 68.05 C88.31 68.69, 60.03 69.34, 0.22 67.9 M-0.52 66.8 C-1.07 41.59, -1.86 16.8, -0.05 -1.45 M-0.25 68.8 C-0.67 43.37, 0.5 19.3, 0.5 -0.07" stroke="#000000" stroke-width="1" fill="none"></path></g><g transform="translate(508.0234375 429.7486780355056) rotate(0 52 25)"><text x="52" y="18" font-family="Virgil, Segoe UI Emoji" font-size="20px" fill="#000000" text-anchor="middle" style="white-space: pre;" direction="ltr">React- UI</text><text x="52" y="43" font-family="Virgil, Segoe UI Emoji" font-size="20px" fill="#000000" text-anchor="middle" style="white-space: pre;" direction="ltr">Library</text></g><g stroke-linecap="round"><g transform="translate(625.606178206549 348.12111955597345) rotate(0 2.6557608195927287 29.081896405337318)"><path d="M-0.32 -0.29 C0.73 9.42, 4.68 48.62, 5.64 58.7 M1.71 -1.49 C2.64 8.3, 4.1 49.73, 4.55 59.65" stroke="#000000" stroke-width="1" fill="none"></path></g><g transform="translate(625.606178206549 348.12111955597345) rotate(0 2.6557608195927287 29.081896405337318)"><path d="M-7.32 31.45 C-5.82 37.83, -0.54 44.82, 6.25 58.22 M-7.15 31.5 C-3.91 39.39, -0.77 47.99, 3.92 60.28" stroke="#000000" stroke-width="1" fill="none"></path></g><g transform="translate(625.606178206549 348.12111955597345) rotate(0 2.6557608195927287 29.081896405337318)"><path d="M13.18 30.63 C9.7 37.15, 9.99 44.35, 6.25 58.22 M13.35 30.67 C10.99 38.65, 8.53 47.47, 3.92 60.28" stroke="#000000" stroke-width="1" fill="none"></path></g></g><mask></mask><g stroke-linecap="round" transform="translate(636.203125 424.2369592855056) rotate(0 80.5 31)"><path d="M-1.03 -0.99 C53.73 -0.05, 109.41 -0.56, 160.46 1.82 M-0.72 0.79 C56.5 1.71, 114.08 1.51, 160.95 -0.16 M160.48 -0.51 C160.75 20.35, 161.78 39.95, 162.18 62.08 M160.13 0.79 C161.2 23.47, 161.19 46.09, 160.29 62.34 M161.24 62.88 C126.9 65.15, 91.91 62.4, -1.56 62.88 M160.52 61.38 C98.13 61.57, 35.18 62.54, 0.56 62.54 M0.8 60.92 C-1.15 48.76, -1.04 35.11, 1.74 -0.03 M-0.12 62.64 C-0.03 49.35, 0.22 34.31, -0.23 -0.32" stroke="#000000" stroke-width="1" fill="none"></path></g><g transform="translate(644.703125 430.2369592855056) rotate(0 72 25)"><text x="72" y="18" font-family="Virgil, Segoe UI Emoji" font-size="20px" fill="#000000" text-anchor="middle" style="white-space: pre;" direction="ltr">Css Framework</text><text x="72" y="43" font-family="Virgil, Segoe UI Emoji" font-size="20px" fill="#000000" text-anchor="middle" style="white-space: pre;" direction="ltr">Mantine</text></g><g stroke-linecap="round" transform="translate(475.66015625 604.4127405355056) rotate(0 87 42.5)"><path d="M-0.32 -1.24 C57.81 -0.37, 120.36 -0.02, 174.83 -0.12 M0.5 -0.23 C59.43 -1.55, 119.79 -1.25, 174.07 0.46 M175.94 0.24 C176.03 20.25, 174.79 35.61, 175.05 86.28 M173.75 -0.23 C173.49 26.49, 173.98 55.04, 173.26 85.08 M175.51 86.45 C110.81 83.98, 50.45 85.26, 0.62 86.28 M173.33 84.64 C108.15 83.92, 40.72 83.93, 0.78 85.05 M-1.3 86.39 C-1.75 54.91, 0.65 25.08, -1.22 -1.1 M0.29 84.83 C-0.69 51.67, -0.36 17.39, 0.28 -0.02" stroke="#000000" stroke-width="1" fill="none"></path></g><g transform="translate(479.66015625 612.9127405355056) rotate(0 82 25)"><text x="82" y="18" font-family="Virgil, Segoe UI Emoji" font-size="20px" fill="#000000" text-anchor="middle" style="white-space: pre;" direction="ltr">React Query </text><text x="82" y="43" font-family="Virgil, Segoe UI Emoji" font-size="20px" fill="#000000" text-anchor="middle" style="white-space: pre;" direction="ltr">(talks to server</text></g><g transform="translate(1273.69140625 140.1705530355056) rotate(0 40.5 12.5)"><text x="0" y="18" font-family="Virgil, Segoe UI Emoji" font-size="20px" fill="#000000" text-anchor="start" style="white-space: pre;" direction="ltr">Backend</text></g><g stroke-linecap="round" transform="translate(1205.71875 215.5338342855056) rotate(0 108.73046875 60.21875)"><path d="M1.5 1.62 C70.79 -0.67, 143.56 -0.35, 215.96 1.51 M-0.57 -0.41 C50.09 2.17, 101.88 0.9, 217.33 0.41 M219.19 1.21 C216.13 35.03, 217.95 71.64, 219.03 120.65 M217.01 0.29 C217.37 39.08, 219.25 75.89, 218.05 120.35 M217.4 120.77 C140.16 119.94, 61.57 119.96, 0.53 120.54 M218.18 120.56 C169.96 119.7, 122.7 120.17, -0.84 119.72 M-0.47 120.16 C1.09 83.07, -1.21 44.03, 0.03 -0.67 M0.13 119.9 C-1.32 91.53, -0.48 61.01, -0.5 -0.94" stroke="#000000" stroke-width="1" fill="none"></path></g><g transform="translate(1223.44921875 250.7525842855056) rotate(0 91 25)"><text x="91" y="18" font-family="Virgil, Segoe UI Emoji" font-size="20px" fill="#000000" text-anchor="middle" style="white-space: pre;" direction="ltr">ExpressJs Server </text><text x="91" y="43" font-family="Virgil, Segoe UI Emoji" font-size="20px" fill="#000000" text-anchor="middle" style="white-space: pre;" direction="ltr">(Node)</text></g><g stroke-linecap="round" transform="translate(1129.0859375 412.5572717855056) rotate(0 198.447265625 134.3125)"><path d="M0.45 -0.28 C149.17 -2.06, 296.53 -2.26, 397.4 -0.25 M0.22 0.46 C94.49 2.5, 188.8 1.7, 397 -0.52 M398.17 -0.99 C397.89 66.16, 398.75 129.71, 396.78 267.26 M396.94 0.31 C396.68 73.94, 396.96 148.62, 397.02 269.28 M397.68 269.38 C298.82 268.34, 199.58 267.07, 0.3 268.08 M396.69 269.12 C259.24 270.21, 121.23 270.4, -0.17 268.77 M0.76 267.4 C-1.04 166.43, -1.13 61.69, 0.17 -1.02 M-0.57 268.16 C1.21 186.04, 0.78 105.17, -0.52 0.33" stroke="#000000" stroke-width="1" fill="none"></path></g><g stroke-linecap="round"><g transform="translate(1309.9774845562456 342.2916467855057) rotate(0 -0.5248297963728419 28.070430819094156)"><path d="M0.42 -0.47 C0.34 9.14, -0.46 47.06, -1.05 56.44 M-0.82 -1.76 C-0.92 8.14, -1.47 48.16, -1.47 57.9" stroke="#000000" stroke-width="1" fill="none"></path></g><g transform="translate(1309.9774845562456 342.2916467855057) rotate(0 -0.5248297963728419 28.070430819094156)"><path d="M-11.72 32.91 C-9.05 36.14, -7.73 46.14, -2.68 58.52 M-10.49 32.08 C-8.43 38.37, -5.79 44.39, -1.21 58.4" stroke="#000000" stroke-width="1" fill="none"></path></g><g transform="translate(1309.9774845562456 342.2916467855057) rotate(0 -0.5248297963728419 28.070430819094156)"><path d="M7.64 33.06 C5.42 36.32, 1.84 46.28, -2.68 58.52 M8.87 32.23 C6.4 38.37, 4.51 44.36, -1.21 58.4" stroke="#000000" stroke-width="1" fill="none"></path></g></g><mask></mask><g stroke-linecap="round" transform="translate(885.00390625 485.0924280355056) rotate(0 86.357421875 45.05078125)"><path d="M1.11 0.54 C48.22 1.49, 97.82 0.54, 171.47 -0.51 M0.48 -0.02 C36.13 0.08, 72.79 -0.29, 171.85 0.65 M174.64 0.79 C174.11 30.18, 173.49 64.74, 172.17 89.3 M172.98 0.18 C171.65 30.4, 171.71 60.9, 172.78 90.71 M170.99 90.89 C136.84 89.88, 101.01 91.3, -1.2 88.11 M172.73 89.88 C107.84 89.66, 40.56 90.65, 0.16 90.04 M-0.43 89.66 C2.18 59.34, 2.02 30.12, -1.59 -1.69 M0.67 90.94 C0.68 54.82, 1.03 19.29, -0.08 0.16" stroke="#000000" stroke-width="1" fill="none"></path></g><g transform="translate(929.361328125 520.1432092855056) rotate(0 42 10)"><text x="42" y="14" font-family="Virgil, Segoe UI Emoji" font-size="16px" fill="#000000" text-anchor="middle" style="white-space: pre;" direction="ltr">REST API</text></g><g stroke-linecap="round"><g transform="translate(877.7890625 533.6197717855056) rotate(0 -21.5870431887638 0.2428331852439669)"><path d="M0.18 1.06 C-6.92 1.29, -35.59 1.27, -42.82 0.91 M-1.18 0.58 C-8.35 0.52, -36.26 -0.58, -43.35 -0.73" stroke="#000000" stroke-width="1" fill="none"></path></g><g transform="translate(877.7890625 533.6197717855056) rotate(0 -21.5870431887638 0.2428331852439669)"><path d="M-20.87 -6.23 C-26.93 -4.95, -36.02 -2.62, -42.8 -2.54 M-23.08 -7.15 C-28.66 -6.11, -33.02 -3.94, -43.58 -0.98" stroke="#000000" stroke-width="1" fill="none"></path></g><g transform="translate(877.7890625 533.6197717855056) rotate(0 -21.5870431887638 0.2428331852439669)"><path d="M-21.33 8.68 C-27.2 5.79, -36.17 3.96, -42.8 -2.54 M-23.54 7.76 C-28.88 4.95, -33.13 3.28, -43.58 -0.98" stroke="#000000" stroke-width="1" fill="none"></path></g></g><mask></mask><g stroke-linecap="round"><g transform="translate(1070.19140625 524.7408655355056) rotate(0 24.68679580800233 -0.6520975405667286)"><path d="M-0.57 0.47 C7.79 0.48, 41.5 0.22, 49.95 -0.07 M1.33 -0.33 C9.52 -0.65, 40.86 -1.79, 48.86 -1.77" stroke="#000000" stroke-width="1" fill="none"></path></g><g transform="translate(1070.19140625 524.7408655355056) rotate(0 24.68679580800233 -0.6520975405667286)"><path d="M26.22 6.84 C33.43 4.67, 38.02 0.89, 48.97 -2.07 M25.72 6.92 C32.15 4.04, 36.74 3.2, 49.71 -1.38" stroke="#000000" stroke-width="1" fill="none"></path></g><g transform="translate(1070.19140625 524.7408655355056) rotate(0 24.68679580800233 -0.6520975405667286)"><path d="M25.88 -10.33 C33.17 -7.64, 37.86 -6.54, 48.97 -2.07 M25.38 -10.26 C31.79 -8.8, 36.46 -5.32, 49.71 -1.38" stroke="#000000" stroke-width="1" fill="none"></path></g></g><mask></mask><g stroke-linecap="round" transform="translate(1337.0625 426.9127405355056) rotate(0 86.443359375 58.69140625)"><path d="M-0.28 1.42 C61.75 0.75, 117.94 1.66, 171.14 -0.76 M-0.49 -0.51 C63.53 -0.19, 126.36 -0.53, 172.59 0.41 M172.16 -1.92 C172.07 45.79, 174.06 92.96, 172.22 118.89 M172.77 -0.9 C173.53 39.87, 172.13 82.65, 173.34 118.35 M173 116.66 C136.57 116.62, 104.9 116.51, 1.92 117.43 M173.51 117.3 C134.37 116.94, 96.4 116.66, 0.04 117.35 M-0.04 115.86 C0.92 74.1, -0.74 32.51, 0.12 -1.53 M-0.78 116.76 C0.2 84.61, 0.18 52.7, -0.07 0.34" stroke="#000000" stroke-width="1" fill="none"></path></g><g transform="translate(1383.005859375 475.6041467855056) rotate(0 40.5 10)"><text x="40.5" y="14" font-family="Virgil, Segoe UI Emoji" font-size="16px" fill="#000000" text-anchor="middle" style="white-space: pre;" direction="ltr">Database</text></g><g stroke-linecap="round" transform="translate(1147.8046875 437.9283655355056) rotate(0 79.80078125 71.734375)"><path d="M1.23 1.97 C52.31 0.75, 103.3 -1.57, 159.42 0.88 M0.56 0.95 C45.03 -0.02, 91.43 -0.25, 160.47 -0.91 M159.67 -1.49 C159.26 52.49, 158.64 109.3, 159.5 143.98 M159.6 -0.43 C160.23 47.27, 161.4 94.47, 159.58 143.11 M158.25 142.37 C123.5 142.31, 87.25 142.46, 0.99 144.24 M158.7 143.28 C106.17 141.95, 52.28 141.64, 0.75 142.95 M1.25 144.51 C-0.84 101.53, -1.15 54.17, -1.6 0.54 M0.14 142.64 C-1 99.03, 0.38 53.52, -0.48 -0.72" stroke="#000000" stroke-width="1" fill="none"></path></g><g transform="translate(1196.00390625 458.7252405355056) rotate(0 36 50)"><text x="0" y="14" font-family="Virgil, Segoe UI Emoji" font-size="16px" fill="#000000" text-anchor="start" style="white-space: pre;" direction="ltr">CRUD</text><text x="0" y="34" font-family="Virgil, Segoe UI Emoji" font-size="16px" fill="#000000" text-anchor="start" style="white-space: pre;" direction="ltr">- Create</text><text x="0" y="54" font-family="Virgil, Segoe UI Emoji" font-size="16px" fill="#000000" text-anchor="start" style="white-space: pre;" direction="ltr">- Update</text><text x="0" y="74" font-family="Virgil, Segoe UI Emoji" font-size="16px" fill="#000000" text-anchor="start" style="white-space: pre;" direction="ltr">- Delete</text><text x="0" y="94" font-family="Virgil, Segoe UI Emoji" font-size="16px" fill="#000000" text-anchor="start" style="white-space: pre;" direction="ltr">- Read</text></g><g stroke-linecap="round" transform="translate(493.4458410931927 930.614756325704) rotate(0 27.81460987140798 25.60069298867586)"><path d="M40.09 1.92 C45.29 3.77, 50.94 9.95, 53.45 15.04 C55.96 20.14, 56.89 27.02, 55.13 32.47 C53.37 37.92, 47.82 44.63, 42.89 47.76 C37.96 50.89, 31.37 52.01, 25.54 51.26 C19.71 50.5, 12.29 47.14, 7.9 43.21 C3.52 39.28, -0.27 33.08, -0.76 27.69 C-1.24 22.3, 1.27 15.4, 4.99 10.89 C8.72 6.38, 15.41 1.91, 21.6 0.63 C27.78 -0.65, 38.72 2.54, 42.11 3.2 C45.5 3.87, 42.17 4.34, 41.93 4.63 M15.67 4.19 C20.18 1.44, 26.68 -1.31, 32.5 -0.59 C38.31 0.13, 46.69 4.19, 50.55 8.53 C54.41 12.87, 55.78 19.9, 55.67 25.43 C55.55 30.95, 53.6 37.18, 49.84 41.66 C46.09 46.14, 39.09 51.22, 33.12 52.33 C27.15 53.44, 19.3 51.65, 14.04 48.31 C8.78 44.98, 3.73 37.74, 1.56 32.32 C-0.62 26.89, -1.42 20.65, 0.98 15.76 C3.38 10.87, 13.6 5.1, 15.95 2.98 C18.3 0.85, 15.01 2.88, 15.08 3.02" stroke="#000000" stroke-width="2" fill="none"></path></g><g stroke-linecap="round"><g transform="translate(518.095689789692 981.5323655540659) rotate(0 -1.4049623212579831 31.84662657826857)"><path d="M-1.13 1.12 C-1.71 11.78, -2.17 53.04, -2.48 63.04 M0.48 0.66 C-0.33 11.08, -2.57 51.21, -3.29 61.42" stroke="#000000" stroke-width="2" fill="none"></path></g></g><mask></mask><g stroke-linecap="round"><g transform="translate(515.6095301756848 1045.1951316951827) rotate(0 12.889285493575585 19.17541747574353)"><path d="M1.12 0.25 C5.53 6.71, 21.78 31.32, 25.53 37.61 M0.24 -0.66 C4.66 6.07, 20.8 32.35, 25.09 39.01" stroke="#000000" stroke-width="2" fill="none"></path></g></g><mask></mask><g stroke-linecap="round"><g transform="translate(514.3541193671613 1043.9006333754023) rotate(0 -12.170750762506202 17.25403738613511)"><path d="M0.25 0.96 C-3.48 6.28, -19.61 27.63, -23.51 33.05 M-1.08 0.42 C-4.89 6.38, -20.8 28.4, -24.59 34.09" stroke="#000000" stroke-width="2" fill="none"></path></g></g><mask></mask><g stroke-linecap="round"><g transform="translate(484.16148203707576 1016.8048706572071) rotate(0 16.872543690237933 -10.471425151594644)"><path d="M0.96 -0.25 C6.03 -3.74, 26.36 -17.4, 31.53 -20.69 M0.01 -1.43 C5.35 -4.72, 28.58 -15.68, 33.74 -19.1" stroke="#000000" stroke-width="2" fill="none"></path></g></g><mask></mask><g stroke-linecap="round"><g transform="translate(518.4815948436406 996.6010544020511) rotate(0 10.250504924513734 12.855337032377633)"><path d="M-0.25 -0.96 C3.17 3.11, 17.14 21.01, 20.75 25.39 M1.82 1.15 C5.07 5.3, 16.65 22.47, 19.86 26.67" stroke="#000000" stroke-width="2" fill="none"></path></g></g><mask></mask><g transform="translate(514.1015625 875.5143030355056) rotate(0 19 10)"><text x="0" y="14" font-family="Virgil, Segoe UI Emoji" font-size="16px" fill="#000000" text-anchor="start" style="white-space: pre;" direction="ltr">User</text></g><g stroke-linecap="round" transform="translate(732.0390625 918.2916467855056) rotate(0 72.314453125 61.736328125)"><path d="M0.09 -1.61 C58.38 -1.49, 115.49 -0.07, 144.5 1.71 M0.75 -0.5 C42.61 -0.18, 86.44 -0.07, 145.4 -0.68 M144.7 -1.33 C147.09 26.37, 147.15 57.29, 145.83 124.76 M144.42 0.85 C143.55 38.53, 143.28 77.15, 143.66 123.89 M143.29 125.1 C92.71 123.66, 42.67 125.07, 1.9 123.73 M144.04 124.4 C95.74 121.62, 48.36 123.53, 0.52 123.51 M-1.21 123.92 C1.45 87.63, 0.43 54.36, 1.3 1.41 M0.73 123.4 C-0.03 82.73, -0.26 41.25, 0.74 0.26" stroke="#000000" stroke-width="1" fill="none"></path></g><g transform="translate(749.853515625 970.0279749105056) rotate(0 54.5 10)"><text x="54.5" y="14" font-family="Virgil, Segoe UI Emoji" font-size="16px" fill="#000000" text-anchor="middle" style="white-space: pre;" direction="ltr">Website(todo)</text></g><g stroke-linecap="round"><g transform="translate(552.9765625 962.1510217855056) rotate(0 82.8719952404964 0.05718603122386412)"><path d="M-0.21 1.19 C27.69 1.37, 139.65 0.74, 167.53 0.56 M-1.78 0.77 C25.97 0.67, 138.69 -0.63, 166.68 -1.11" stroke="#000000" stroke-width="1" fill="none"></path></g><g transform="translate(552.9765625 962.1510217855056) rotate(0 82.8719952404964 0.05718603122386412)"><path d="M140.62 9.87 C148.77 5.85, 156.58 4.04, 166.63 -2.23 M138.13 10.14 C143.62 7.1, 149.41 4.66, 166.68 -2.1" stroke="#000000" stroke-width="1" fill="none"></path></g><g transform="translate(552.9765625 962.1510217855056) rotate(0 82.8719952404964 0.05718603122386412)"><path d="M140.34 -10.65 C148.49 -8.35, 156.38 -3.84, 166.63 -2.23 M137.85 -10.38 C143.38 -9.14, 149.23 -7.32, 166.68 -2.1" stroke="#000000" stroke-width="1" fill="none"></path></g></g><mask></mask><g transform="translate(573.609375 926.7135217855056) rotate(0 53.5 10)"><text x="0" y="14" font-family="Virgil, Segoe UI Emoji" font-size="16px" fill="#000000" text-anchor="start" style="white-space: pre;" direction="ltr">Feed the cat</text></g><g stroke-linecap="round" transform="translate(1060.796875 920.0338342855056) rotate(0 85.669921875 57.30078125)"><path d="M0.93 1.49 C52.88 -0.44, 108.02 -3.52, 170.81 -0.07 M0.29 0.26 C52.77 -0.66, 105.17 -1.49, 170.52 0.04 M171.91 -1.92 C169.84 37.87, 169.32 72.55, 170.59 116.55 M170.56 0.55 C171.64 35.94, 171.7 74.27, 171.08 115.07 M172.01 116.06 C105.89 114.3, 34.78 115.48, -1.8 114.05 M170.88 114.4 C118.47 115.91, 64.51 114.96, 0.68 113.98 M-1.09 115.58 C-0.3 85.93, -0.68 59.11, -0.88 -1.42 M-0.19 114.93 C0.35 88.26, 1.69 62.1, 0.58 -0.68" stroke="#000000" stroke-width="1" fill="none"></path></g><g transform="translate(778.953125 889.7525842855056) rotate(0 22.5 10)"><text x="0" y="14" font-family="Virgil, Segoe UI Emoji" font-size="16px" fill="#000000" text-anchor="start" style="white-space: pre;" direction="ltr">Client</text></g><g transform="translate(1127.56640625 891.9947717855056) rotate(0 25.5 10)"><text x="0" y="14" font-family="Virgil, Segoe UI Emoji" font-size="16px" fill="#000000" text-anchor="start" style="white-space: pre;" direction="ltr">Server</text></g><g stroke-linecap="round"><g transform="translate(883.5703125 972.7096155355056) rotate(0 84.0428892862052 1.230534656494001)"><path d="M-0.45 1.06 C27.7 1.17, 140.49 0.41, 168.54 0.56 M1.51 0.56 C29.58 0.86, 140.29 1.98, 167.86 1.92" stroke="#000000" stroke-width="1" fill="none"></path></g><g transform="translate(883.5703125 972.7096155355056) rotate(0 84.0428892862052 1.230534656494001)"><path d="M141.38 12.89 C146.67 9.04, 156.63 4.89, 168.13 1.34 M140.25 12.02 C147.18 9.5, 154.23 6.07, 167.72 1.5" stroke="#000000" stroke-width="1" fill="none"></path></g><g transform="translate(883.5703125 972.7096155355056) rotate(0 84.0428892862052 1.230534656494001)"><path d="M141.48 -7.63 C146.73 -5.94, 156.66 -4.54, 168.13 1.34 M140.35 -8.5 C147.37 -5.75, 154.4 -3.91, 167.72 1.5" stroke="#000000" stroke-width="1" fill="none"></path></g></g><mask></mask><g transform="translate(887.24609375 939.7408655355056) rotate(0 79 10)"><text x="0" y="14" font-family="Virgil, Segoe UI Emoji" font-size="16px" fill="#000000" text-anchor="start" style="white-space: pre;" direction="ltr">REST API (Create)</text></g><g stroke-linecap="round"><g transform="translate(1246.36328125 966.5885217855056) rotate(0 63.78569915165201 -1.0015391457826581)"><path d="M-0.39 0.75 C20.58 0.15, 104.54 -2.1, 125.75 -2.75 M1.61 0.1 C22.96 -0.35, 107.19 -0.79, 127.96 -1.13" stroke="#000000" stroke-width="1" fill="none"></path></g><g transform="translate(1246.36328125 966.5885217855056) rotate(0 63.78569915165201 -1.0015391457826581)"><path d="M101.13 7.82 C108.31 6.75, 115.89 2.62, 128.33 -2.85 M99.47 9.26 C104.98 6.65, 112.59 5.28, 128.12 -0.39" stroke="#000000" stroke-width="1" fill="none"></path></g><g transform="translate(1246.36328125 966.5885217855056) rotate(0 63.78569915165201 -1.0015391457826581)"><path d="M100.92 -12.7 C108.31 -7.76, 115.95 -5.88, 128.33 -2.85 M99.26 -11.26 C104.94 -9.38, 112.6 -6.27, 128.12 -0.39" stroke="#000000" stroke-width="1" fill="none"></path></g></g><mask></mask><g stroke-linecap="round" transform="translate(1397.86328125 912.9947717855056) rotate(0 34.333984375 56.138671875)"><path d="M-1.37 1.28 C20.97 0.08, 44.17 1.02, 70.22 -0.08 M0.38 0.18 C26.44 -0.94, 50.32 0.19, 69.47 -0.04 M66.9 0.28 C69.83 42.69, 67.85 81.35, 69.21 111.64 M68.15 -0.01 C68.22 40.02, 66.6 81.1, 69.21 112.45 M67.54 112.22 C46.13 111.05, 28.5 110.27, -1.76 114.12 M67.84 113.08 C41.69 112.63, 14.57 112.44, -0.75 113.21 M1.19 113.35 C1.29 70.8, 1.46 27.52, -0.53 -1.07 M-0.99 112.75 C0.69 78.8, -0.53 44.23, 0.46 -0.12" stroke="#000000" stroke-width="1" fill="none"></path></g><g transform="translate(1404.697265625 929.1334436605056) rotate(0 27.5 40)"><text x="27.5" y="14" font-family="Virgil, Segoe UI Emoji" font-size="16px" fill="#000000" text-anchor="middle" style="white-space: pre;" direction="ltr">Todo -</text><text x="27.5" y="34" font-family="Virgil, Segoe UI Emoji" font-size="16px" fill="#000000" text-anchor="middle" style="white-space: pre;" direction="ltr">Feed </text><text x="27.5" y="54" font-family="Virgil, Segoe UI Emoji" font-size="16px" fill="#000000" text-anchor="middle" style="white-space: pre;" direction="ltr">the </text><text x="27.5" y="74" font-family="Virgil, Segoe UI Emoji" font-size="16px" fill="#000000" text-anchor="middle" style="white-space: pre;" direction="ltr">cat</text></g><g transform="translate(1393.421875 882.5416467855056) rotate(0 40.5 10)"><text x="0" y="14" font-family="Virgil, Segoe UI Emoji" font-size="16px" fill="#000000" text-anchor="start" style="white-space: pre;" direction="ltr">Database</text></g><g stroke-linecap="round"><g transform="translate(1390.1875 1000.1705530355056) rotate(0 -74.06453675661237 0.13004370687167466)"><path d="M1 -0.33 C-23.76 -0.02, -123.43 1.47, -148.49 1.81 M0.07 -1.55 C-24.81 -1.6, -124.07 -0.25, -149.13 -0.05" stroke="#000000" stroke-width="1" fill="none"></path></g><g transform="translate(1390.1875 1000.1705530355056) rotate(0 -74.06453675661237 0.13004370687167466)"><path d="M-121.6 -9.64 C-128.91 -7.6, -137.73 -2.27, -148.52 -0.84 M-121.05 -10.7 C-131.85 -6.22, -141.41 -1.95, -150.09 -0.42" stroke="#000000" stroke-width="1" fill="none"></path></g><g transform="translate(1390.1875 1000.1705530355056) rotate(0 -74.06453675661237 0.13004370687167466)"><path d="M-121.38 10.88 C-128.75 6.58, -137.63 5.56, -148.52 -0.84 M-120.83 9.82 C-131.63 6.95, -141.27 3.86, -150.09 -0.42" stroke="#000000" stroke-width="1" fill="none"></path></g></g><mask></mask><g stroke-linecap="round"><g transform="translate(1044.2890625 1008.0533655355056) rotate(0 -78.53508797317738 0.039931127131012545)"><path d="M-1.01 0.34 C-27.06 0.39, -130.81 -0.28, -156.7 -0.34 M0.66 -0.53 C-25.52 -0.31, -131.44 0.38, -157.73 0.61" stroke="#000000" stroke-width="1" fill="none"></path></g><g transform="translate(1044.2890625 1008.0533655355056) rotate(0 -78.53508797317738 0.039931127131012545)"><path d="M-129.05 -10.12 C-138.98 -7.05, -145.93 -5.9, -155.96 -0.8 M-130.39 -10.08 C-137.7 -7.29, -147.67 -2.22, -156.98 -0.35" stroke="#000000" stroke-width="1" fill="none"></path></g><g transform="translate(1044.2890625 1008.0533655355056) rotate(0 -78.53508797317738 0.039931127131012545)"><path d="M-128.9 10.4 C-138.75 8.05, -145.74 3.77, -155.96 -0.8 M-130.24 10.44 C-137.77 6.88, -147.78 5.59, -156.98 -0.35" stroke="#000000" stroke-width="1" fill="none"></path></g></g><mask></mask><g stroke-linecap="round" transform="translate(725.69140625 1231.8814905355057) rotate(0 81.314453125 67.376953125)"><path d="M0 -0.57 C31.29 2.62, 64.42 1.38, 163.09 -1.48 M-0.53 -0.61 C64.27 1.4, 127.93 1.5, 162.67 -0.17 M160.87 1 C162.73 50.2, 160.29 97.46, 163.27 134.36 M162.41 -0.59 C163.04 53.48, 163.16 106.7, 161.91 134.59 M162.77 135.71 C114.12 133.28, 70.22 135.7, 0.93 136.15 M162.51 135.57 C105.02 133.61, 46.88 133.7, -0.97 133.77 M-1.06 133.08 C-0.49 82.07, 0.04 32.33, -1.07 0.11 M0.23 134.46 C-0.41 81.13, -2.17 29.17, 0.28 0.96" stroke="#000000" stroke-width="1" fill="none"></path></g><g transform="translate(786.1015625 1203.5143030355057) rotate(0 22.5 10)"><text x="0" y="14" font-family="Virgil, Segoe UI Emoji" font-size="16px" fill="#000000" text-anchor="start" style="white-space: pre;" direction="ltr">Client</text></g><g stroke-linecap="round"><g transform="translate(541.12109375 1283.0611780355057) rotate(0 84.16291218938301 2.959109123004623)"><path d="M0.7 0.97 C28.61 1.94, 138.74 4.95, 166.42 5.49 M-0.39 0.43 C27.99 1.13, 141.03 3.14, 168.71 3.97" stroke="#000000" stroke-width="1" fill="none"></path></g><g transform="translate(541.12109375 1283.0611780355057) rotate(0 84.16291218938301 2.959109123004623)"><path d="M141.91 12.26 C148.38 10.56, 152.33 9.63, 170.7 2.89 M139.38 14.36 C145.83 10.73, 152.43 9.71, 169.07 3.54" stroke="#000000" stroke-width="1" fill="none"></path></g><g transform="translate(541.12109375 1283.0611780355057) rotate(0 84.16291218938301 2.959109123004623)"><path d="M142.38 -8.26 C148.69 -5.52, 152.54 -2.02, 170.7 2.89 M139.85 -6.15 C146.1 -5.56, 152.61 -2.36, 169.07 3.54" stroke="#000000" stroke-width="1" fill="none"></path></g></g><mask></mask><g stroke-linecap="round" transform="translate(485.1945079618404 1220.6588435276058) rotate(0 27.81460987140798 25.60069298867586)"><path d="M35.93 1.38 C41.42 2.9, 48.2 8.02, 51.46 12.49 C54.72 16.95, 56.29 22.81, 55.49 28.16 C54.69 33.5, 51.05 40.59, 46.65 44.56 C42.25 48.53, 35.03 51.87, 29.09 51.99 C23.15 52.11, 15.81 48.71, 11.03 45.27 C6.25 41.82, 1.7 36.68, 0.43 31.29 C-0.83 25.9, 0.59 17.85, 3.47 12.93 C6.34 8.02, 11.16 3.15, 17.71 1.82 C24.25 0.49, 37.54 3.65, 42.74 4.97 C47.93 6.29, 49.06 9.53, 48.88 9.71 M28.91 -0.55 C34.72 -0.6, 42.77 2.43, 47.42 6.31 C52.07 10.19, 56.17 17.36, 56.8 22.73 C57.44 28.1, 54.85 33.93, 51.25 38.52 C47.65 43.12, 40.99 48.73, 35.19 50.31 C29.39 51.88, 21.57 50.16, 16.47 47.99 C11.36 45.82, 7.23 42.08, 4.57 37.3 C1.92 32.52, -0.43 24.69, 0.54 19.33 C1.51 13.97, 5.54 8.25, 10.41 5.14 C15.27 2.04, 26.51 1.61, 29.72 0.7 C32.94 -0.22, 29.85 -0.75, 29.69 -0.36" stroke="#000000" stroke-width="2" fill="none"></path></g><g stroke-linecap="round"><g transform="translate(509.8443566583396 1271.5764527559677) rotate(0 -1.004852465613567 30.917154273052688)"><path d="M0.93 0.72 C0.54 10.69, -1.61 50.6, -2.24 60.87 M-0.04 0.05 C-0.55 10.63, -2.33 51.15, -2.94 61.78" stroke="#000000" stroke-width="2" fill="none"></path></g></g><mask></mask><g stroke-linecap="round"><g transform="translate(507.3581970443324 1335.2392188970844) rotate(0 12.547077830935507 19.445935539944344)"><path d="M0.72 0.49 C4.44 6.62, 19.35 31.45, 23.37 37.73 M-0.36 -0.31 C3.61 5.94, 21.35 32.54, 25.45 39.2" stroke="#000000" stroke-width="2" fill="none"></path></g></g><mask></mask><g stroke-linecap="round"><g transform="translate(506.1027862358087 1333.944720577304) rotate(0 -11.96177094025802 16.546569184989607)"><path d="M0.49 -1.2 C-3.57 4.4, -19.49 28.27, -23.39 34.29 M-0.72 0.78 C-5.02 5.94, -20.6 26.94, -24.41 32.32" stroke="#000000" stroke-width="2" fill="none"></path></g></g><mask></mask><g stroke-linecap="round"><g transform="translate(475.9101489057234 1306.8489578591089) rotate(0 15.784578238516872 -11.290205450395774)"><path d="M-1.2 -0.13 C4.14 -3.63, 27 -17.06, 32.77 -20.49 M0.37 -1.24 C5.52 -5.16, 26.51 -19.44, 31.97 -22.45" stroke="#000000" stroke-width="2" fill="none"></path></g></g><mask></mask><g stroke-linecap="round"><g transform="translate(510.2302617122882 1286.645141603953) rotate(0 9.647360865816779 13.091071981638493)"><path d="M-0.13 0.28 C3.28 4.95, 17.47 22.66, 20.95 26.8 M-1.66 -0.62 C1.58 3.83, 16.55 20.71, 20.17 25.15" stroke="#000000" stroke-width="2" fill="none"></path></g></g><mask></mask><g transform="translate(558.7265625 1251.8111780355057) rotate(0 61.5 10)"><text x="0" y="14" font-family="Virgil, Segoe UI Emoji" font-size="16px" fill="#000000" text-anchor="start" style="white-space: pre;" direction="ltr">Delete the cat</text></g><g transform="translate(746.005859375 1289.2584436605057) rotate(0 61 10)"><text x="61" y="14" font-family="Virgil, Segoe UI Emoji" font-size="16px" fill="#000000" text-anchor="middle" style="white-space: pre;" direction="ltr">Delete request</text></g><g stroke-linecap="round" transform="translate(1054.25 1242.4010217855057) rotate(0 95.552734375 57.65234375)"><path d="M0.66 -0.34 C41.25 2.75, 79.57 0.44, 189.89 -1.61 M0.75 -0.79 C59.29 0.88, 120.14 2.71, 190.54 0.47 M191.44 1.85 C193.82 26.01, 193.13 48.42, 190.68 116.99 M190.27 0.02 C191.24 40.92, 191.53 82.61, 191.2 115.18 M189.85 116.06 C144.69 113.28, 97.83 113.62, -1.94 115.76 M190.59 115.56 C145.35 114.11, 99.05 113.88, -0.62 116.12 M-1 115.54 C0.34 83.93, -1.36 53.8, -0.77 -0.82 M-0.88 114.83 C-0.05 91.08, -0.3 65.82, -0.06 -0.85" stroke="#000000" stroke-width="1" fill="none"></path></g><g transform="translate(1132.1015625 1206.5143030355057) rotate(0 25.5 10)"><text x="0" y="14" font-family="Virgil, Segoe UI Emoji" font-size="16px" fill="#000000" text-anchor="start" style="white-space: pre;" direction="ltr">Server</text></g><g stroke-linecap="round"><g transform="translate(895.5703125 1296.8502405355057) rotate(0 75.78061342518777 0.12526754451721445)"><path d="M-1.17 1.03 C23.81 1.05, 125.14 -0.81, 150.47 -0.78 M0.41 0.53 C25.72 0.72, 127.83 0.37, 152.73 0.17" stroke="#000000" stroke-width="1" fill="none"></path></g><g transform="translate(895.5703125 1296.8502405355057) rotate(0 75.78061342518777 0.12526754451721445)"><path d="M126.32 9.15 C132.64 6.38, 145.74 5.07, 151.64 -0.68 M123.81 10.54 C133.63 6.94, 140.51 4.23, 151.82 -0.36" stroke="#000000" stroke-width="1" fill="none"></path></g><g transform="translate(895.5703125 1296.8502405355057) rotate(0 75.78061342518777 0.12526754451721445)"><path d="M126.21 -11.37 C132.42 -6.96, 145.56 -1.11, 151.64 -0.68 M123.7 -9.98 C133.42 -7.61, 140.33 -4.37, 151.82 -0.36" stroke="#000000" stroke-width="1" fill="none"></path></g></g><mask></mask><g transform="translate(895.58203125 1263.1744592855057) rotate(0 78 10)"><text x="0" y="14" font-family="Virgil, Segoe UI Emoji" font-size="16px" fill="#000000" text-anchor="start" style="white-space: pre;" direction="ltr">REST API (Delete)</text></g><g stroke-linecap="round" transform="translate(1343.28515625 1249.5084436605057) rotate(0 34.333984375 56.138671875)"><path d="M1.29 -1.33 C26.48 -0.8, 53.13 -0.5, 67.86 -1.49 M0.79 -0.33 C20.24 -0.35, 38.76 -0.24, 68.32 0.99 M70.29 1.59 C68.89 41.26, 67.94 84.15, 67.66 111.82 M67.94 0.78 C69.76 41.53, 68.58 84, 69.12 112.67 M67.5 110.67 C44.96 112.56, 25.23 113.04, -0.75 113.1 M69.66 112.56 C44.71 112.76, 19.82 112.38, 0.26 111.38 M-0.99 112.45 C1.38 80.23, 1.45 49.2, -1.52 -0.43 M0.23 112.05 C-0.85 74.28, -0.05 35.85, -0.64 0.24" stroke="#000000" stroke-width="1" fill="none"></path></g><g transform="translate(1349.119140625 1285.6471155355057) rotate(0 28.5 20)"><text x="28.5" y="14" font-family="Virgil, Segoe UI Emoji" font-size="16px" fill="#000000" text-anchor="middle" style="white-space: pre;" direction="ltr">Remove</text><text x="28.5" y="34" font-family="Virgil, Segoe UI Emoji" font-size="16px" fill="#000000" text-anchor="middle" style="white-space: pre;" direction="ltr">todo</text></g><g transform="translate(1339.09375 1219.0553186605057) rotate(0 40.5 10)"><text x="0" y="14" font-family="Virgil, Segoe UI Emoji" font-size="16px" fill="#000000" text-anchor="start" style="white-space: pre;" direction="ltr">Database</text></g><g stroke-linecap="round"><g transform="translate(1256.0390625 1305.7213342855057) rotate(0 40.758410188518496 -0.34159951238098074)"><path d="M-0.7 0.7 C12.5 0.82, 66.5 0.42, 80.11 0.2 M1.13 0.02 C14.6 -0.14, 69.07 -1.52, 82.22 -1.4" stroke="#000000" stroke-width="1" fill="none"></path></g><g transform="translate(1256.0390625 1305.7213342855057) rotate(0 40.758410188518496 -0.34159951238098074)"><path d="M55.3 7.24 C66.47 4.82, 75.67 3.05, 82.04 -2.58 M53.48 9.13 C62.93 5.89, 73.35 2.26, 82.7 -1.86" stroke="#000000" stroke-width="1" fill="none"></path></g><g transform="translate(1256.0390625 1305.7213342855057) rotate(0 40.758410188518496 -0.34159951238098074)"><path d="M55.08 -13.28 C66.25 -7.95, 75.53 -1.96, 82.04 -2.58 M53.26 -11.39 C62.71 -7.88, 73.2 -4.76, 82.7 -1.86" stroke="#000000" stroke-width="1" fill="none"></path></g></g><mask></mask><g stroke-linecap="round"><g transform="translate(1334.7265625 1282.3463342855057) rotate(0 -39.96320521030566 0.3432514363654491)"><path d="M-0.42 1.01 C-14.11 1.07, -68.13 1.36, -81.49 1.32 M1.57 0.5 C-11.83 0.1, -65.54 -0.85, -79.39 -0.59" stroke="#000000" stroke-width="1" fill="none"></path></g><g transform="translate(1334.7265625 1282.3463342855057) rotate(0 -39.96320521030566 0.3432514363654491)"><path d="M-49.48 -12.71 C-60.44 -7.71, -71.37 -5.43, -79.8 1.22 M-50.7 -11.53 C-57.84 -9.5, -64.1 -6.62, -78.56 0.08" stroke="#000000" stroke-width="1" fill="none"></path></g><g transform="translate(1334.7265625 1282.3463342855057) rotate(0 -39.96320521030566 0.3432514363654491)"><path d="M-49.53 7.81 C-60.64 5.52, -71.56 0.51, -79.8 1.22 M-50.75 8.99 C-57.71 6.65, -63.96 5.16, -78.56 0.08" stroke="#000000" stroke-width="1" fill="none"></path></g></g><mask></mask><g stroke-linecap="round"><g transform="translate(1038.34765625 1332.6705530355057) rotate(0 -67.29769150726497 0.28261918448345114)"><path d="M0.59 0.39 C-22.07 0.16, -112.57 -0.41, -135.19 -0.26 M-0.56 -0.46 C-22.93 -0.01, -111 1.04, -133.04 1.02" stroke="#000000" stroke-width="1" fill="none"></path></g><g transform="translate(1038.34765625 1332.6705530355057) rotate(0 -67.29769150726497 0.28261918448345114)"><path d="M-104.27 -11.22 C-115.86 -7.19, -123.58 -0.95, -135.03 0.2 M-104.9 -8.78 C-113.35 -5.47, -123.89 -3.19, -133.82 1" stroke="#000000" stroke-width="1" fill="none"></path></g><g transform="translate(1038.34765625 1332.6705530355057) rotate(0 -67.29769150726497 0.28261918448345114)"><path d="M-104.14 9.3 C-115.96 5.86, -123.73 4.63, -135.03 0.2 M-104.77 11.74 C-113.21 8.47, -123.79 4.17, -133.82 1" stroke="#000000" stroke-width="1" fill="none"></path></g></g><mask></mask><g transform="translate(941.9609375 825.3893030355056) rotate(0 34 10)"><text x="0" y="14" font-family="Virgil, Segoe UI Emoji" font-size="16px" fill="#000000" text-anchor="start" style="white-space: pre;" direction="ltr">Workflow</text></g><g stroke-linecap="round" transform="translate(477.00390625 793.9478967855056) rotate(0 513.625 301.42578125)"><path d="M-0.12 -0.48 C255.51 1.83, 508.85 3.01, 1027.6 -0.23 M-0.25 0.32 C315.42 3.45, 630.33 3.94, 1027.39 0.06 M1027.75 0.64 C1026.03 165.67, 1026.98 331.36, 1026.68 602.41 M1027.42 0.13 C1027.81 193.17, 1027.69 385.96, 1027.62 602.52 M1027.76 602.21 C713.45 603.88, 398.66 603.62, 0.13 603.33 M1027.47 602.46 C719.39 599.39, 411.29 599.29, -0.23 603.24 M0.37 602.68 C1.13 417.46, 0.34 232.92, 0.03 -0.04 M0.05 603.08 C0.38 396.86, 0.18 190.71, -0.21 -0.27" stroke="#000000" stroke-width="1" fill="none"></path></g><g transform="translate(935.4861170210754 915.3494583813762) rotate(0 33 10)"><text x="0" y="14" font-family="Virgil, Segoe UI Emoji" font-size="16px" fill="#000000" text-anchor="start" style="white-space: pre;" direction="ltr">Request</text></g><g transform="translate(934.1340632512031 985.421114628666) rotate(0 36 10)"><text x="0" y="14" font-family="Virgil, Segoe UI Emoji" font-size="16px" fill="#000000" text-anchor="start" style="white-space: pre;" direction="ltr">Response</text></g><g transform="translate(1255.0345546223207 934.8769467259546) rotate(0 53.5 10)"><text x="0" y="14" font-family="Virgil, Segoe UI Emoji" font-size="16px" fill="#000000" text-anchor="start" style="white-space: pre;" direction="ltr">Create in DB</text></g><g transform="translate(1243.257970336912 973.5204287895) rotate(0 71.5 8.5)"><text x="0" y="12" font-family="Virgil, Segoe UI Emoji" font-size="13.637442255959927px" fill="#000000" text-anchor="start" style="white-space: pre;" direction="ltr">Created Successfully</text></g><g stroke-linecap="round" transform="translate(828.0390625 1739.2135217855057) rotate(0 126.341796875 131.865234375)"><path d="M0.08 -0.21 C69.31 -3.15, 135.41 -0.3, 252.87 1.45 M0.07 -0.73 C100.77 -1.19, 200.63 -1.49, 252.16 -0.11 M251.36 0.87 C251.54 66.25, 252.38 132.57, 253.5 262.67 M253.15 0.3 C254.56 79.03, 255.11 157.12, 252.39 264.4 M253.94 262.99 C157.72 265.27, 62.07 266.36, 1.13 263.27 M253.47 264.28 C169.92 264.96, 86.67 265.66, 0.34 263.01 M1.57 262.46 C-1.22 178.2, -1.91 92.44, 1.08 -1.1 M0.63 263.75 C0.12 182.81, 1.5 101.75, -0.52 0.68" stroke="#000000" stroke-width="1" fill="none"></path></g><g transform="translate(873.40234375 1786.3580530355057) rotate(0 63 37.5)"><text x="0" y="18" font-family="Virgil, Segoe UI Emoji" font-size="20px" fill="#000000" text-anchor="start" style="white-space: pre;" direction="ltr">- Apple (1)</text><text x="0" y="43" font-family="Virgil, Segoe UI Emoji" font-size="20px" fill="#000000" text-anchor="start" style="white-space: pre;" direction="ltr">- Kiwi (2)</text><text x="0" y="68" font-family="Virgil, Segoe UI Emoji" font-size="20px" fill="#000000" text-anchor="start" style="white-space: pre;" direction="ltr">- Orange (3)</text></g></svg>